<?xml version="1.0" standalone="no"?>
<!DOCTYPE svg PUBLIC "-//W3C//DTD SVG 20010904//EN"
 "http://www.w3.org/TR/2001/REC-SVG-20010904/DTD/svg10.dtd">
<svg version="1.0" xmlns="http://www.w3.org/2000/svg"
 width="256.000000pt" height="256.000000pt" viewBox="0 0 256.000000 256.000000"
 preserveAspectRatio="xMidYMid meet">
<metadata>
Created by potrace 1.14, written by Peter Selinger 2001-2017
</metadata>
<g transform="translate(0.000000,256.000000) scale(0.100000,-0.100000)"
fill="#000000" stroke="none">
<path d="M1192 2487 c-174 -15 -336 -93 -467 -222 -160 -158 -235 -340 -235
-568 l0 -94 -40 -18 c-199 -90 -367 -295 -426 -520 -25 -96 -25 -284 0 -380
48 -179 155 -338 306 -450 203 -152 518 -188 759 -87 37 16 92 45 123 65 l56
37 53 -36 c134 -91 278 -135 443 -135 126 0 222 19 321 65 244 113 399 311
455 582 24 116 25 145 5 249 -38 197 -115 341 -251 467 -53 49 -163 123 -208
139 l-31 11 -1 127 c0 69 -6 146 -13 171 -112 398 -448 634 -849 597z"/>
</g>
</svg>
